<svg width="46" height="46" viewBox="0 0 46 46" fill="none" xmlns="http://www.w3.org/2000/svg">
<path d="M32.5833 6.70404C32.5833 6.44988 32.4824 6.20612 32.3026 6.0264C32.1229 5.84668 31.8792 5.74571 31.625 5.74571H26.8333C24.4205 5.62552 22.0581 6.46521 20.2625 8.08132C18.4668 9.69743 17.3838 11.9586 17.25 14.3707V19.5457H12.4583C12.2042 19.5457 11.9604 19.6467 11.7807 19.8264C11.601 20.0061 11.5 20.2499 11.5 20.504V25.4874C11.5 25.7415 11.601 25.9853 11.7807 26.165C11.9604 26.3447 12.2042 26.4457 12.4583 26.4457H17.25V39.2874C17.25 39.5415 17.351 39.7853 17.5307 39.965C17.7104 40.1447 17.9542 40.2457 18.2083 40.2457H23.9583C24.2125 40.2457 24.4563 40.1447 24.636 39.965C24.8157 39.7853 24.9167 39.5415 24.9167 39.2874V26.4457H29.9383C30.1514 26.4488 30.3595 26.3807 30.5296 26.2523C30.6997 26.1238 30.8221 25.9424 30.8775 25.7365L32.2575 20.7532C32.2956 20.6116 32.3008 20.4631 32.2725 20.3193C32.2442 20.1754 32.1833 20.0399 32.0944 19.9232C32.0055 19.8066 31.8911 19.7119 31.7599 19.6464C31.6286 19.581 31.4841 19.5465 31.3375 19.5457H24.9167V14.3707C24.9643 13.8963 25.1871 13.4567 25.5415 13.1377C25.896 12.8187 26.3565 12.6433 26.8333 12.6457H31.625C31.8792 12.6457 32.1229 12.5447 32.3026 12.365C32.4824 12.1853 32.5833 11.9415 32.5833 11.6874V6.70404Z" fill="white"/>
</svg>
