<svg width="46" height="46" viewBox="0 0 46 46" fill="none" xmlns="http://www.w3.org/2000/svg">
<path d="M33.5417 26.8369C32.9808 28.789 31.8688 30.5379 30.339 31.8739C28.8092 33.21 26.9265 34.0764 24.9167 34.3694C23.3451 34.5974 21.7436 34.5055 20.2084 34.0992C18.6732 33.6929 17.2359 32.9806 15.9828 32.005C14.7298 31.0294 13.6868 29.8106 12.9164 28.4219C12.1461 27.0332 11.6643 25.5031 11.5 23.9236C11.3727 22.3379 11.5759 20.743 12.0965 19.2397C12.6172 17.7365 13.4441 16.3577 14.5249 15.1904C15.6057 14.0231 16.917 13.0927 18.3758 12.4581C19.8346 11.8235 21.4092 11.4985 23 11.5036C24.4907 11.5057 25.9673 11.7919 27.3508 12.3469C27.5687 12.4447 27.8152 12.4577 28.0421 12.3832C28.269 12.3088 28.46 12.1523 28.5775 11.9444L31.3375 6.86527C31.3969 6.74828 31.4326 6.62071 31.4426 6.48989C31.4526 6.35906 31.4367 6.22754 31.3957 6.10289C31.3548 5.97824 31.2896 5.8629 31.204 5.76349C31.1183 5.66408 31.0139 5.58256 30.8967 5.52361C27.933 4.18177 24.6765 3.61641 21.4339 3.88077C18.1914 4.14513 15.0694 5.23051 12.3622 7.03469C9.65501 8.83886 7.45158 11.3024 5.95947 14.1934C4.46736 17.0844 3.73568 20.3076 3.83335 23.5594C4.02223 28.3892 6.00757 32.9745 9.40045 36.417C12.7933 39.8596 17.3493 41.9113 22.1758 42.1703C27.2319 42.3945 32.1714 40.6099 35.9165 37.2058C39.6617 33.8018 41.9085 29.0547 42.1667 24.0003V20.1669C42.1618 19.9143 42.0592 19.6734 41.8806 19.4947C41.7019 19.3161 41.461 19.2135 41.2083 19.2086H23.9583C23.7042 19.2086 23.4604 19.3096 23.2807 19.4893C23.101 19.669 23 19.9128 23 20.1669V25.9169C23 26.1711 23.101 26.4149 23.2807 26.5946C23.4604 26.7743 23.7042 26.8753 23.9583 26.8753H33.5417" fill="white"/>
</svg>
