<svg width="46" height="46" viewBox="0 0 46 46" fill="none" xmlns="http://www.w3.org/2000/svg">
<path d="M23 2.875C11.8891 2.875 2.875 11.8891 2.875 23C2.875 34.1109 11.8891 43.125 23 43.125C34.1109 43.125 43.125 34.1205 43.125 23C43.125 11.8795 34.1109 2.875 23 2.875ZM35.7784 12.1517C38.1065 14.889 39.4921 18.3028 39.7306 21.8883C36.1042 21.7005 31.7649 21.7005 28.2842 22.0244C27.8434 20.9127 27.393 19.8241 26.9004 18.7757C30.9139 17.0353 34.0055 14.7507 35.7784 12.1517ZM23 6.22917C26.9093 6.22246 30.6969 7.58788 33.7027 10.0874C31.878 12.3912 29.0164 14.3999 25.4533 15.9141C23.5022 12.3088 21.2597 9.20575 18.8677 6.76392C20.2176 6.41471 21.6057 6.23636 23 6.22917ZM15.41 8.06342C17.8327 10.4746 20.1058 13.5451 22.0992 17.1369C18.3137 18.2946 13.9744 18.9577 9.34375 18.9577C8.48058 18.9566 7.61766 18.9285 6.75625 18.8734C7.34648 16.5596 8.42376 14.3984 9.91609 12.5342C11.4084 10.67 13.2815 9.14579 15.41 8.06342ZM6.25983 22.2027C7.21433 22.2448 8.17842 22.2659 9.154 22.2563C14.4363 22.1931 19.3507 21.3651 23.5769 20.01C23.9756 20.838 24.3532 21.6871 24.7077 22.5572C24.1976 22.6688 23.6965 22.8187 23.2089 23.0058C17.434 25.4323 12.8858 29.3403 10.4228 34.0687C7.72135 31.0144 6.22983 27.0777 6.22917 23C6.22917 22.7317 6.23875 22.4652 6.25983 22.2027ZM23 39.7708C19.2739 39.7754 15.6537 38.5318 12.7171 36.2384C14.95 31.8147 18.9328 28.152 23.9545 25.8827C24.426 25.6622 25.0547 25.484 25.7773 25.3268C26.3772 26.9828 26.9119 28.7002 27.3815 30.4827C28.084 33.1735 28.6014 35.9092 28.9302 38.6707C27.037 39.3957 25.0272 39.7686 23 39.7708ZM32.0658 37.099C31.5878 32.9299 30.6598 28.8247 29.2982 24.8553C32.591 24.587 36.5317 24.6253 39.6673 24.8553C39.3914 27.333 38.5659 29.7179 37.2512 31.836C35.9365 33.9541 34.1656 35.7522 32.0678 37.099H32.0658Z" fill="white"/>
</svg>
