<svg width="46" height="46" viewBox="0 0 46 46" fill="none" xmlns="http://www.w3.org/2000/svg">
<path d="M17.25 38.333C16.7417 38.333 16.2542 38.5349 15.8948 38.8944C15.5353 39.2538 15.3334 39.7413 15.3334 40.2497C15.3334 40.758 15.5353 41.2455 15.8948 41.605C16.2542 41.9644 16.7417 42.1663 17.25 42.1663C17.7584 42.1663 18.2459 41.9644 18.6053 41.605C18.9648 41.2455 19.1667 40.758 19.1667 40.2497C19.1667 39.7413 18.9648 39.2538 18.6053 38.8944C18.2459 38.5349 17.7584 38.333 17.25 38.333Z" stroke="#016170" stroke-width="3.83333" stroke-linecap="round" stroke-linejoin="round"/>
<path d="M38.3333 38.333C37.825 38.333 37.3374 38.5349 36.978 38.8944C36.6186 39.2538 36.4166 39.7413 36.4166 40.2497C36.4166 40.758 36.6186 41.2455 36.978 41.605C37.3374 41.9644 37.825 42.1663 38.3333 42.1663C38.8416 42.1663 39.3291 41.9644 39.6886 41.605C40.048 41.2455 40.25 40.758 40.25 40.2497C40.25 39.7413 40.048 39.2538 39.6886 38.8944C39.3291 38.5349 38.8416 38.333 38.3333 38.333Z" stroke="#016170" stroke-width="3.83333" stroke-linecap="round" stroke-linejoin="round"/>
<path d="M1.91663 1.91699H9.58329L14.72 27.5812C14.8952 28.4636 15.3753 29.2562 16.0761 29.8204C16.7769 30.3845 17.6538 30.6842 18.5533 30.667H37.1833C38.0828 30.6842 38.9597 30.3845 39.6605 29.8204C40.3613 29.2562 40.8414 28.4636 41.0166 27.5812L44.0833 11.5003H11.5" stroke="#016170" stroke-width="3.83333" stroke-linecap="round" stroke-linejoin="round"/>
</svg>
