<svg width="46" height="46" viewBox="0 0 46 46" fill="none" xmlns="http://www.w3.org/2000/svg">
<path d="M15.4866 38.3277C18.3206 38.422 21.1448 37.9473 23.7923 36.9318C26.4398 35.9163 28.857 34.3805 30.901 32.4151C32.945 30.4497 34.5743 28.0946 35.6929 25.489C36.8114 22.8833 37.3964 20.0799 37.4132 17.2443C38.712 15.637 39.6764 13.7863 40.2499 11.801C40.2927 11.6441 40.2892 11.4782 40.2399 11.3233C40.1907 11.1684 40.0976 11.031 39.9721 10.9277C39.8465 10.8244 39.6937 10.7596 39.5322 10.7411C39.3707 10.7226 39.2072 10.7512 39.0616 10.8235C38.3821 11.1506 37.6171 11.2562 36.8744 11.1256C36.1316 10.9949 35.4486 10.6345 34.9216 10.0952C34.2487 9.35835 33.4348 8.76409 32.5281 8.3476C31.6214 7.9311 30.6403 7.70083 29.643 7.67045C28.6456 7.64007 27.6523 7.81018 26.722 8.17071C25.7916 8.53123 24.943 9.07484 24.2266 9.76933C23.2456 10.7193 22.5271 11.907 22.1409 13.2168C21.7546 14.5266 21.7138 15.9141 22.0224 17.2443C15.6016 17.6277 11.1932 14.5802 7.66656 10.4018C7.56062 10.2818 7.42202 10.1953 7.26771 10.1528C7.1134 10.1103 6.95004 10.1136 6.79759 10.1624C6.64515 10.2112 6.5102 10.3033 6.40924 10.4275C6.30828 10.5517 6.24567 10.7026 6.22906 10.8618C5.55721 14.5886 6.04186 18.4318 7.61791 21.8751C9.19397 25.3185 11.7859 28.1971 15.0457 30.1243C12.86 32.631 9.79063 34.1966 6.47823 34.4943C6.30077 34.5238 6.13695 34.6079 6.0097 34.7351C5.88245 34.8622 5.79814 35.026 5.76857 35.2034C5.739 35.3808 5.76564 35.5631 5.84478 35.7246C5.92391 35.8862 6.05157 36.0189 6.2099 36.1043C9.09164 37.5444 12.2651 38.305 15.4866 38.3277Z" fill="white"/>
</svg>
